# xmcd
#
# Track frame offsets: 
#        187
#        21492
#        41782
#        61330
#        80017
#        109105
#        127720
#        153865
#        175425
#        200095
#        220390
#        245245
#        263325
#
# Disc length: 3822 seconds
#
# Revision: 5
# Processed by: cddbd v1.5.2PL0 Copyright (c) Steve Scherf et al.
# Submitted via: ExactAudioCopy v1.0b3
#
DISCID=ba0eec0d
DTITLE=小泉 今日子 - anytime
DYEAR=1994
DGENRE=JPop
TTITLE0=My Sweet Home
TTITLE1=La La La…
TTITLE2=優しい雨
TTITLE3=ドライブ
TTITLE4=SEXY HEAVEN
TTITLE5=あなたに会えてよかった
TTITLE6=永遠の友達
TTITLE7=月ひとしずく
TTITLE8=ラブバラ
TTITLE9=あなたがいた季節
TTITLE10=自分を見つめて
TTITLE11=Heaven
TTITLE12=おやすみ…
EXTD=YEAR: 1994
EXTT0=
EXTT1=
EXTT2=
EXTT3=
EXTT4=
EXTT5=
EXTT6=
EXTT7=
EXTT8=
EXTT9=
EXTT10=
EXTT11=
EXTT12=
PLAYORDER=
